<svg height="1360" viewBox="0 0 3319.893 1360" width="3319.893" xmlns="http://www.w3.org/2000/svg"><clipPath id="a"><path d="M0 1020h2489.918V0H0z"/></clipPath><clipPath id="b"><path d="M358.177 854.72c-7.043 0-12.773-5.73-12.773-12.773V314.15c0-7.041 5.73-12.772 12.773-12.772h527.797c7.042 0 12.772 5.731 12.772 12.772v527.797c0 7.043-5.73 12.773-12.772 12.773z"/></clipPath><clipPath id="c"><path d="M0 1020h2489.918V0H0z"/></clipPath><clipPath id="d"><path d="M358.177 854.72c-7.043 0-12.773-5.73-12.773-12.773V314.15c0-7.041 5.73-12.772 12.773-12.772h527.797c7.042 0 12.772 5.731 12.772 12.772v527.797c0 7.043-5.73 12.773-12.772 12.773z"/></clipPath><clipPath id="e"><path d="M0 1020h2489.918V0H0z"/></clipPath><path d="M1607.283 158.048v1043.908" fill="none" stroke="#000001" stroke-miterlimit="10" stroke-width="5.28"/><g clip-path="url(#a)" transform="matrix(1.33333 0 0 -1.33333 0 1360)"><g fill="#fff"><path d="M1460.614 550.601h46.444c16.082 0 31.905-7.274 31.905-25.641 0-9.823-4.731-19.148-14.291-22.849v-.259c9.692-2.284 12.499-13.137 13.275-21.803.254-3.838.63-17.234 3.818-20.544h-23.473c-2.041 3.066-2.432 11.98-2.685 14.539-.63 9.184-2.159 18.625-13.266 18.625h-17.99v-33.164h-23.737zm23.737-39.555h19.905c7.137 0 10.975 3.832 10.975 10.721 0 6.762-5.356 9.823-12.001 9.823h-18.879zm102.189 41.474c28.703 0 44.907-21.047 44.907-47.464 0-26.418-16.204-47.47-44.907-47.47-28.712 0-44.916 21.052-44.916 47.47s16.204 47.464 44.916 47.464m0-74.521c15.301 0 21.164 13.523 21.164 27.057 0 13.528-5.863 27.042-21.164 27.042-15.325 0-21.184-13.514-21.184-27.042 0-13.534 5.859-27.057 21.184-27.057m50.115 72.602h42.616c15.691.254 32.931-3.827 32.931-22.844 0-8.157-4.853-14.788-12.001-18.376 9.691-2.793 15.696-11.219 15.696-21.555 0-21.691-15.955-28.321-35.474-28.321h-43.768zm23.737-35.854h18.372c4.081 0 9.7 2.172 9.7 8.68 0 6.635-4.72 8.798-9.7 8.798h-18.372zm0-36.231h19.016c7.518 0 12.757 2.675 12.757 10.199 0 8.046-5.619 10.731-12.757 10.731h-19.016zm102.184 74.004c28.707 0 44.916-21.047 44.916-47.464 0-26.418-16.209-47.47-44.916-47.47-28.712 0-44.916 21.052-44.916 47.47s16.204 47.464 44.916 47.464m0-74.521c15.31 0 21.174 13.523 21.174 27.057 0 13.528-5.864 27.042-21.174 27.042-15.316 0-21.179-13.514-21.179-27.042 0-13.534 5.863-27.057 21.179-27.057m122.345 52.181h-27.181v-70.675h-23.734v70.675h-27.174v20.422h78.089zm5.285 19.596h23.727v-91.101h-23.727zm90.498-31.714c-1.265 9.184-8.419 14.036-18.368 14.036-15.308 0-21.177-13.514-21.177-27.042 0-13.533 5.869-27.057 21.177-27.057 11.099 0 17.488 6.376 18.368 16.848h23.742c-1.27-23.483-18.498-37.26-41.6-37.26-27.556 0-45.419 21.052-45.419 47.469s17.863 47.464 45.419 47.464c19.658 0 40.97-12.513 41.6-34.458z"/><path d="M2027.898 490.116c.515-10.711 7.154-14.158 17.233-14.158 7.149 0 14.543 2.558 14.543 9.315 0 8.041-13.009 9.574-26.147 13.275-13.023 3.695-26.686 9.569-26.686 26.285 0 19.905 20.037 27.687 37.135 27.687 18.122 0 36.36-8.808 36.49-29.347h-23.722c.375 8.3-7.409 10.97-14.673 10.97-5.109 0-11.483-1.791-11.483-7.777 0-7.025 13.143-8.305 26.406-12.01 13.138-3.696 26.407-9.818 26.407-26.271 0-23.103-19.643-30.499-39.67-30.499-20.932 0-39.435 9.188-39.56 32.53zm-611.848-88.682c-1.284 9.184-8.431 14.033-18.386 14.033-15.301 0-21.179-13.523-21.179-27.046 0-13.533 5.878-27.047 21.179-27.047 11.106 0 17.483 6.374 18.386 16.833h23.732c-1.284-23.477-18.498-37.255-41.596-37.255-27.564 0-45.429 21.052-45.429 47.469 0 26.401 17.865 47.459 45.429 47.459 19.651 0 40.956-12.504 41.596-34.446zm70.156 34.446c28.707 0 44.906-21.058 44.906-47.459 0-26.417-16.199-47.469-44.906-47.469-28.712 0-44.916 21.052-44.916 47.469 0 26.401 16.204 47.459 44.916 47.459m0-74.506c15.305 0 21.169 13.514 21.169 27.047 0 13.523-5.864 27.046-21.169 27.046-15.32 0-21.184-13.523-21.184-27.046 0-13.533 5.864-27.047 21.184-27.047m50.237 72.592h34.976l15.686-60.728h.259l15.696 60.728h34.957v-91.099h-22.326v69.161h-.254l-19.143-69.161h-18.118l-19.143 69.161h-.249v-69.161h-22.341zm105.367 0h43.246c16.966 0 32.916-7.787 32.916-29.352 0-22.582-12.884-31.376-32.916-31.376h-19.519v-30.371h-23.727zm23.727-42.36h15.95c7.392 0 12.758 3.059 12.758 11.363 0 8.534-5.483 11.989-12.758 11.989h-15.95zm57.664 42.36h72.612v-19.008h-48.875V399.01h44.662v-18.373h-44.662v-17.353h50.145v-20.417h-73.882zm154.441-20.413h-27.178v-70.686h-23.742v70.686h-27.164v20.413h78.084zm3.625 20.413h23.722v-91.099h-23.722zm105.581-20.413h-27.186v-70.686h-23.737v70.686h-27.167v20.413h78.09zm4.454 20.413h23.727v-91.099h-23.727zm73.98 1.914c28.716 0 44.924-21.058 44.924-47.459 0-26.417-16.208-47.469-44.924-47.469-28.701 0-44.909 21.052-44.909 47.469 0 26.401 16.208 47.459 44.909 47.459m0-74.506c15.328 0 21.187 13.514 21.187 27.047 0 13.523-5.859 27.046-21.187 27.046-15.303 0-21.182-13.523-21.182-27.046 0-13.533 5.879-27.047 21.182-27.047m47.384 72.592h24.367l31.636-56.134h.26v56.134h22.332v-91.099h-24.377l-31.636 56.783h-.26v-56.783h-22.322zm-527.327 243.022h72.842l-6.859-28.05h-34.913l-3.451-14.737h36.42l-6.341-25.989h-35.949l-8.631-36.924h-37.629zm82.745 0h37.63l-24.512-105.7h-37.629zm47.474-.634 2.417.318c12.082 1.426 27.1 2.376 35.386 2.376 13.807 0 24.51-1.585 32.624-4.911 10.355-4.28 16.571-13.63 16.571-24.881 0-9.666-3.28-18.858-9.495-25.989-5.352-6.18-10.184-9.191-20.197-12.202l-2.416-.792c1.036-.794 1.382-1.111 1.9-1.586 2.934-3.328 11.737-20.444 19.161-37.398h-41.429c-5.35 15.054-6.904 19.015-13.982 36.131l-8.285-36.131h-36.593zm27.79-49.761c12.083 0 20.542 7.133 20.542 17.273 0 5.39-3.971 8.083-11.739 8.083-2.244 0-3.451-.157-5.868-.634l-5.697-24.403c1.209-.159 1.382-.319 2.762-.319m148.538 50.395h91.303l-6.379-30.598h-27.097l-17.952-75.102h-37.63l17.952 75.102h-29.371zm57.487-86.815c5.069 0 9.189-4.083 9.189-9.155a9.15 9.15 0 0 0-9.189-9.19c-5.149 0-9.159 4.011-9.159 9.19 0 5.108 4.05 9.155 9.159 9.155m0-17.209c4.469 0 8.054 3.584 8.054 8.018a8.03 8.03 0 0 1-8.054 8.055 8.01 8.01 0 0 1-8.019-8.019c0-4.505 3.55-8.054 8.019-8.054m-3.55 12.738c.46.035.53.069 1.455.141.92.072 1.31.107 1.7.107 3.02 0 4.509-1.172 4.509-3.407 0-1.348-.57-2.163-1.774-2.625l-.145-.036c.11-.072.145-.106.18-.176.32-.285 1.385-1.882 2.269-3.337h-3.439c-.71 1.314-.925 1.668-1.81 3.158v-3.158h-2.945zm3.3-4.401c.815 0 1.275.391 1.275 1.137 0 .709-.425 1.1-1.24 1.1-.18 0-.215 0-.39-.036v-2.165c.14-.036.21-.036.355-.036"/><path d="M1795.212 573.975c10.579-3.143 22.148-4.905 32.957-4.905 14.673 0 25.892 3.326 35.556 10.3 10.703 7.608 17.607 19.333 17.607 29.949 0 7.134-3.104 13.631-8.629 18.228-4.314 3.483-8.803 6.179-17.952 10.457l-7.421 3.486c-2.418 1.269-3.626 2.536-3.626 3.963 0 3.803 4.833 6.654 11.392 6.654 4.909 0 10.758-1.427 21.932-5.081l7.714 28.613c-8.359 2.271-16.503 3.409-24.642 3.409-30.723 0-54.371-16.797-54.371-38.508 0-11.409 7.595-19.492 26.582-28.367 8.975-4.118 10.531-5.23 10.531-8.081 0-4.278-4.662-6.974-12.257-6.974-6.732 0-15.362 2.061-27.1 6.339l-.015-.003z"/></g><path d="M885.973 901.466H358.176c-32.819 0-59.519-27.002-59.519-60.193V307.494c0-33.192 26.7-60.194 59.519-60.194h527.797c32.82 0 59.519 27.002 59.519 60.194v533.779c0 33.191-26.699 60.193-59.519 60.193" fill="#fff"/><path d="M358.177 854.72c-7.042 0-12.773-5.731-12.773-12.773V314.15c0-7.042 5.731-12.773 12.773-12.773h527.797c7.042 0 12.773 5.731 12.773 12.773v527.797c0 7.042-5.731 12.773-12.773 12.773zm527.797-575.157H358.177c-19.071 0-34.588 15.515-34.588 34.587v527.797c0 19.071 15.517 34.588 34.588 34.588h527.797c19.073 0 34.588-15.517 34.588-34.588V314.15c0-19.072-15.515-34.587-34.588-34.587"/></g><g clip-path="url(#b)" transform="matrix(1.33333 0 0 -1.33333 0 1360)"><path d="M358.177 854.72c-7.042 0-12.773-5.731-12.773-12.773V314.15c0-7.042 5.731-12.773 12.773-12.773h527.797c7.042 0 12.773 5.731 12.773 12.773v527.797c0 7.042-5.731 12.773-12.773 12.773z" fill="#9fdaea"/><path d="M284.852 460.282c9.76 9.956 21.815 17.297 33.734 24.531 32.214 19.552 64.709 39.238 100.204 51.893 37.336 13.31 77.535 18.521 117.031 15.17 55.184-4.683 107.45-25.599 160.334-42.047 39.203-12.193 80.283-22.096 121.02-16.987s81.374 27.956 97.693 65.629l97.615-319.355L909.094-39.069 503.589-14.082 284.852 19.233 264.55 354.054z" fill="#0083ae"/><path d="M489.604 590.415c-53.922 9.88-110.335 10.099-158.231-1.244-1.19-.282-1.881-1.13-1.743-2.119l9.583-68.478c.302-2.159 3.985-3.391 5.729-1.918 52.974 44.694 148.506 54.297 237.121 38.06 12.885-2.361 25.652-5.2 38.309-8.445 3.815-.979 5.276 2.808 1.65 4.28-42.781 17.366-86.895 31.523-132.418 39.864" fill="#0083ae"/><path d="M1005.016 736.18c-6.558-15.141-17.086-27.84-29.928-38.002l84.133-275.251-103.389-278.184-399.893 24.641 37.797-5.757 405.506-24.987 103.389 278.184z" fill="#0386a3"/></g><g clip-path="url(#c)" transform="matrix(1.33333 0 0 -1.33333 0 1360)"><path d="M806.222 785.019h-11.515c-.947 0-1.353.406-1.353 1.353v16.258c0 .947.406 1.353 1.353 1.353h11.515c5.554 0 9.484-3.928 9.484-9.482s-3.93-9.482-9.484-9.482m-69.809-7.991 4.335 18.812c.419 1.82 3.018 1.801 3.411-.025l4.035-18.787zm-88.016-4.439c-3.941 5.617-10.606 9.638-20.55 12.295-15.039 3.792-19.102 6.908-19.102 12.191 0 5.825 4.199 8.941 11.786 8.941 6.637 0 11.379-4.201 11.379-10.161v-.677a2.72 2.72 0 0 1 2.71-2.71h13.683c.284 0 .545.082.804.164-.488-4.792-.741-10.454-.741-17.097 0-1.023.02-1.968.031-2.946m235.255-25.501h-32.106c-.748 0-1.353.606-1.353 1.354v16.257c0 .747.605 1.354 1.353 1.354h25.055c1.49 0 2.71 1.219 2.71 2.709v13.548c0 1.49-1.22 2.709-2.71 2.709h-25.055c-.748 0-1.353.606-1.353 1.353v16.258c0 .747.605 1.353 1.353 1.353h31.564c1.49 0 2.71 1.219 2.71 2.71v13.547c0 1.49-1.22 2.71-2.71 2.71h-49.174a2.72 2.72 0 0 1-2.71-2.71v-9.877a26 26 0 0 1-3.734 4.729c-5.284 5.283-12.059 7.858-20.591 7.858h-29.804a2.72 2.72 0 0 1-2.71-2.71v-76.77l-20.732 77.447c-.406 1.356-1.218 2.033-2.574 2.033h-18.152c-1.22 0-2.168-.677-2.574-2.033l-16.762-62.258a2.71 2.71 0 0 1-2.505 1.704H697.27c-1.66 0-2.947-1.367-2.984-3.027-.152-6.872-5.259-11.603-12.729-11.603-5.96 0-9.891 2.168-11.924 6.501-1.218 2.845-1.894 10.568-1.894 23.301 0 12.735.676 20.455 1.894 23.3 2.033 4.336 5.964 6.504 11.924 6.504 7.47 0 12.577-4.731 12.729-11.603.037-1.66 1.324-3.027 2.984-3.027h13.807c1.472 0 2.719 1.169 2.721 2.641.014 9.514-2.966 17.124-9.076 22.689-6.098 5.555-13.819 8.4-23.165 8.4-14.089 0-24.521-7.044-29.399-18.017-.621-1.342-1.16-2.975-1.625-4.871-2.326 13.791-13.25 22.888-30.002 22.888-9.347 0-16.934-2.575-22.759-7.585a27 27 0 0 1-4.615-5.283v8.669c0 1.49-1.219 2.71-2.709 2.71h-47.415a2.72 2.72 0 0 1-2.71-2.71v-89.409a2.717 2.717 0 0 1 2.71-2.709h13.547c1.49 0 2.71 1.219 2.71 2.709v33.868c0 .747.606 1.354 1.353 1.354h22.214a2.717 2.717 0 0 1 2.709 2.709v13.548a2.717 2.717 0 0 1-2.709 2.709h-22.214c-.747 0-1.353.606-1.353 1.353v16.258c0 .747.606 1.353 1.353 1.353h29.196a26.7 26.7 0 0 1-.737-6.231c0-14.901 8.128-24.518 24.25-28.719q12.393-3.251 16.255-6.096c2.439-1.897 3.657-4.607 3.657-7.993 0-5.825-5.282-9.753-13.41-9.753-7.722 0-13.141 4.469-13.141 11.109v2.709c0 1.491-1.22 2.71-2.71 2.71h-14.359a2.717 2.717 0 0 1-2.71-2.71V756.3c0-8.806 3.116-15.851 9.214-21.406 6.095-5.554 13.951-8.263 23.706-8.263q14.833 0 23.977 8.128c3.664 3.257 6.18 7.164 7.623 11.694.225-.634.453-1.26.704-1.803 4.878-10.974 15.31-18.019 29.399-18.019q14.019 0 23.165 8.534a27 27 0 0 1 3.654 4.113l-1.727-6.414c-.406-1.356-.544-2.303-.544-2.709 0-1.356.95-2.033 2.709-2.033h14.225c1.355 0 2.168.677 2.574 2.033l6.43 27.906h20.225l5.994-27.906c.406-1.356 1.354-2.033 2.572-2.033h14.224c.481 0 .887.061 1.244.161.256-.08.513-.161.795-.161h13.547c1.49 0 2.71 1.219 2.71 2.709v33.868c0 .747.606 1.354 1.353 1.354h12.194c8.532 0 15.307 2.574 20.591 7.857a26 26 0 0 1 3.734 4.729v-47.808a2.717 2.717 0 0 1 2.71-2.709h49.716a2.717 2.717 0 0 1 2.709 2.709v13.548a2.717 2.717 0 0 1-2.709 2.709m-409.567 1.391c-15.997-2.988-32.275-1.437-47.295 5.24-1.101.49-2.338-.283-2.338-1.489v-14.923c0-.649.377-1.25.964-1.525 15.554-7.275 32.522-8.979 49.167-5.77a1.43 1.43 0 0 1 1.153 1.402v15.711c0 .874-.791 1.515-1.651 1.354m36.382 7.37c-8.867-.271-17.145-2.458-25.573-4.751a1.406 1.406 0 0 1-1.038-1.356v-15.655c0-.925.88-1.595 1.772-1.353 8.177 2.218 16.228 4.285 24.839 4.552 6.972.217 16.111.616 21.591-4.25 1.062-.942 2.731-.192 2.731 1.227l.11 13.208-.215.859c-4.658 8.292-15.955 7.772-24.217 7.519M474.085 781.4c-15.997-2.988-32.275-1.437-47.295 5.24-1.101.49-2.338-.283-2.338-1.489v-14.923c0-.649.377-1.25.964-1.524 15.554-7.276 32.522-8.98 49.167-5.771a1.43 1.43 0 0 1 1.153 1.402v15.711c0 .874-.791 1.515-1.651 1.354m36.382 7.37c-8.867-.271-17.145-2.458-25.573-4.751a1.406 1.406 0 0 1-1.038-1.356v-15.656c0-.924.88-1.594 1.772-1.352 8.177 2.218 16.228 4.285 24.839 4.552 6.972.217 16.111.616 21.591-4.25 1.062-.942 2.731-.192 2.731 1.227l.11 13.208-.215.858c-4.658 8.293-15.955 7.773-24.217 7.52m-36.382 25.552c-15.997-2.988-32.275-1.437-47.295 5.24-1.101.49-2.338-.283-2.338-1.489V803.15c0-.649.377-1.25.964-1.525 15.554-7.275 32.522-8.979 49.167-5.77a1.43 1.43 0 0 1 1.153 1.402v15.711c0 .874-.791 1.515-1.651 1.354m36.382 7.37c-8.867-.271-17.145-2.458-25.573-4.751a1.406 1.406 0 0 1-1.038-1.356v-15.656c0-.924.88-1.594 1.772-1.352 8.177 2.218 16.228 4.285 24.839 4.552 6.972.217 16.111.616 21.591-4.25 1.062-.942 2.731-.192 2.731 1.227l.11 13.208-.215.859c-4.658 8.292-15.955 7.772-24.217 7.519m361.536-103.484a36 36 0 0 0-1.229.375q-1.013.313-1.5.514-.489.2-.724.419a.7.7 0 0 0-.235.532q0 .4.323.627.321.227.88.227.802 0 1.273-.427t.471-.951v-.017a.26.26 0 0 1 .07-.192.26.26 0 0 1 .191-.07h2.703q.121 0 .192.07.07.07.07.192v.157q0 1.186-.637 2.11-.636.923-1.744 1.43-1.107.505-2.467.505-1.29 0-2.328-.453t-1.63-1.299-.593-1.944q0-1.657 1.169-2.529 1.167-.872 2.894-1.394l.506-.14q.924-.279 1.272-.471a.62.62 0 0 0 .349-.575q0-.332-.279-.602t-.924-.27q-.855 0-1.369.375-.514.374-.514.863v.105a.26.26 0 0 1-.07.191.26.26 0 0 1-.192.07h-2.702a.26.26 0 0 1-.192-.07.26.26 0 0 1-.07-.191v-.244q0-1.168.602-2.058t1.7-1.369 2.563-.479q1.413 0 2.476.453 1.064.453 1.656 1.299.593.846.593 2.014 0 1.203-.732 2.049a3.8 3.8 0 0 1-1.822 1.168m14.097 5.362h-2.72a.34.34 0 0 1-.314-.174l-2.197-3.54q-.053-.105-.105 0l-2.196 3.54a.34.34 0 0 1-.314.174h-2.72a.26.26 0 0 1-.192-.07.26.26 0 0 1-.07-.191v-11.683a.26.26 0 0 1 .07-.192.26.26 0 0 1 .192-.069h2.755q.122 0 .191.069a.26.26 0 0 1 .07.192v6.329q0 .07.035.079.034.009.07-.044l1.185-1.935a.34.34 0 0 1 .314-.174h1.326q.208 0 .313.174l1.186 1.935q.034.053.07.044.035-.009.035-.079v-6.329q0-.121.069-.192a.26.26 0 0 1 .192-.069h2.755q.122 0 .192.069.07.07.07.192v11.683a.26.26 0 0 1-.07.191.26.26 0 0 1-.192.07m-479.589 46.954c9.349 5.419 14.089 13.41 14.089 23.977 0 8.535-2.574 15.307-7.856 20.591-5.283 5.284-12.058 7.858-20.59 7.858h-29.805a2.72 2.72 0 0 1-2.709-2.71v-89.409a2.717 2.717 0 0 1 2.709-2.709h13.548a2.717 2.717 0 0 1 2.709 2.709v71.799c0 .747.606 1.353 1.354 1.353h11.256c5.244 0 9.766-4.29 9.743-9.534-.024-5.527-3.947-9.43-9.484-9.43h-5.143c-2.833 0-4.811-2.808-3.856-5.476l17.533-48.982c.677-1.627 1.898-2.439 3.386-2.439h13.548c2.033 0 3.386 1.353 3.386 3.116 0 .541-.27 1.355-.676 2.574l-13.954 32.241c-.406 1.082-.677 1.897-.677 2.574s.542 1.353 1.489 1.897m178.223-260.1c-9.811.068-11.356 20.485-3.742 18.593 6.064-1.507 14.054-18.773 3.742-18.593m4.787 23.132c-8.262 1.801-16.778-2.017-17.02-11.335-.459-17.692 29.808-24.861 31.059-4.482-.904 8.585-5.507 13.958-14.039 15.817m62.349 147.47c8.35 7.12 24.595-9.023 16.768-12.993-6.232-3.161-25.625 5.601-16.768 12.993m12.873-23.073c8.308 4.522 12.72 13.982 6.108 22.042-12.556 15.304-43.408-.775-29.557-18.931 7.045-6.601 14.872-7.78 23.449-3.111m7.746-51.907c.393-6.554 10.638-7.173 10.692-.18.064 8.276-11.184 8.373-10.692.18m-81.903-154.249c.393-6.554 10.638-7.173 10.692-.18.064 8.276-11.184 8.373-10.692.18m-45.238 250.472c-7.949-.901-8.043-13.406.47-13.021 10.074.454 9.468 14.147-.47 13.021m-4.757-167.481c6.022-.901 6.092-13.406-.356-13.021-7.631.454-7.172 14.147.356 13.021m67.134 113.926q.618.236.223.578-.641-.232-.223-.578m-164.931 14.968c8.218 1.911 3.192-7.539.302-10.164-6.717-.384-5.961 8.848-.302 10.164m.022-21.346c7.705-.019 12.944 5.823 12.79 13.305-.752 7.195-5.192 14.206-13.271 13.994-7.522-.198-11.366-5.857-11.49-12.771-.137-7.683 3.355-14.507 11.971-14.528M560.82 603.13c-6.717-.384-5.961 8.849-.302 10.164 8.217 1.911 3.192-7.539.302-10.164m11.604 15.025.033-.023.001.375-.035-.021c-12.105 11.104-28.157-10.744-15.802-20.507 4.693-3.708 12.204-3.966 16.784.063 6.453 5.677 3.212 14.382-.981 20.113"/></g><g clip-path="url(#d)" transform="matrix(1.33333 0 0 -1.33333 0 1360)"><path d="M942.517 416.325c-28.967 23.924-68.437 29.54-105.712 34.241-22.567 2.847-48.195 4.825-65.319-10.146-17.708-15.482-19.788-44.05-38.41-58.418-14.58-11.249-34.809-10.412-53.177-9.11-5.587.396-11.744.624-16.159-2.821-4.117-3.213-5.358-8.761-6.577-13.839-11.68-48.637-37.799-46.036-100.552-31.259-6.077 1.431-16.164-62.961-12.759-68.194 3.764-5.784 122.649-13.639 128.934-16.49 51.133-23.191 108.769-27.258 164.914-26.897 38.588.248 79.686 3.277 110.705 26.232z"/><path d="M815.08 555.338c.261 4.698 1.06 9.331 2.876 13.656 2.668 6.35 2.272 12.324-.739 18.507-5.673 11.65-9.888 23.87-12.942 36.459-2.31 9.519-3.092 19.089.325 28.57 4.356 12.081 16.688 20.85 29.517 21.012 5.081.065 8.795-2.03 10.379-5.852 1.925-4.645.944-8.644-3.031-12.349-.159-.148-.303-.319-.482-.438-12.284-8.131-14.259-19.905-11.847-33.286 1.253-6.95 2.918-13.801 4.735-20.616.98-3.674 3.383-5.104 7.163-4.349 4.055.809 6.808 3.379 8.318 7.104 2.751 6.791 3.753 13.603 1.427 20.938-3.613 11.392-.396 28.794 16.834 35.562 4.343 1.706 8.85 2.278 13.344.505 5.293-2.088 7.338-8.408 3.185-12.162-8.559-7.736-9.197-17.505-8.641-27.799.181-3.349.767-6.679 1.224-10.01 1.01-7.368-2.362-13.39-9.28-16.086-5.457-2.126-11.069-3.81-16.155-6.868-8.386-5.042-13.174-12.087-13.134-22.088.016-3.8-.112-7.601-.07-11.401.087-7.775-1.67-15.068-5.494-21.852-5.455-9.679-8.673-19.871-7.259-31.161.281-2.246.583-4.561 3.134-5.144 2.599-.594 4.763.735 6.053 2.924 1.368 2.322 2.478 4.824 3.456 7.342 2.129 5.476 4.151 11.11 7.691 15.757 7.481 9.823 9.292 20.697 7.891 32.623-.73 6.214-1.415 12.522.703 18.73 1.731 5.075 4.686 9.054 9.395 11.599a392 392 0 0 0 13.912 7.146c4.736 2.321 7.57 5.986 8.612 11.146.867 4.291 1.157 8.572.766 12.953-1.118 12.543 3.965 21.752 15.243 27.327 7.456 3.685 15.309 5.488 23.683 3.722 5.211-1.099 8.586-4.233 9.051-8.516.544-5.004-2.047-9.041-7.235-11.08-1.915-.753-3.883-1.417-5.88-1.908-10.35-2.545-15.201-8.621-15.998-21.253-.211-3.355-.096-6.73-.191-10.095-.205-7.249-2.746-13.306-8.91-17.571-3.662-2.534-7.241-5.19-10.831-7.828-5.54-4.07-8.672-9.391-9.479-16.371-1-8.649-1.721-17.296-1.813-25.994-.02-1.829.147-3.699.534-5.484.514-2.369 2.095-3.882 4.616-3.778 2.481.102 3.948 1.643 4.431 4.05.904 4.504.809 9.082.925 13.642.103 4.038.659 8 1.69 11.911 1.621 6.15 5.108 11.107 10.937 13.414 8.963 3.548 13.42 10.218 15.33 19.138 3.522 16.448 16.284 21.899 30.269 22.344 7.743.247 15.095-1.674 21.881-5.452 4.171-2.321 7.638-5.439 9.358-10.043 2.303-6.161-2.138-11.597-8.669-10.657-4.563.655-8.681 2.74-12.96 4.281-4.72 1.701-9.465 2.317-14.401 1.288-7.159-1.492-11.911-5.783-12.805-12.988-1.272-10.265-5.856-18.475-13.316-25.361-2.523-2.328-4.169-5.242-5.016-8.608-.443-1.762-.32-3.182 1.432-4.192 1.774-1.023 3.491-1.272 5.093.192 1.604 1.464 3.248 2.918 4.644 4.57 7.31 8.652 16.601 9.91 26.953 7.407 6.387-1.545 12.375-4.038 17.919-7.57 4.646-2.96 7.114-8.164 5.759-12.06-1.407-4.047-6.291-6.655-11.877-6.079-4.474.462-8.607 2.149-12.664 4.041-8.884 4.143-13.653 3.497-19.64-4.378-9.763-12.839-23.425-17.727-38.397-20.404-8.272-1.479-16.258-3.746-23.837-7.476-9.754-4.8-16.987-12.038-21.383-21.927-2.638-5.937-1.397-15.231 15.052-18.837-1.003-3.932-25.556-5.553-29.445-6.036-7.377-.915-14.77-.585-22.074.653-4.797.813-9.055 5.314-6.725 9.586 3.804-.158 6.145 2.973 6.922 5.598 2.588 8.735 1.778 17.667-1.716 26.678-.82 2.114-2.36 3.614-4.529 4.419-2.552.946-4.215-.127-3.879-2.809.253-2.019.973-3.997 1.632-5.944 2.484-7.347 2.099-21.602-2.944-23.863-2.159-.967-3.715.696-4.975 2.278-7.837 9.843-15.216 15.073-25.448 22.388-4.982 3.562-9.406 7.881-12.74 12.973-6.4 9.777-15.388 14.886-26.714 16.719-4.704.761-9.222 2.443-13.373 4.949-4.185 2.526-7.553 5.833-9.938 10.102-1.762 3.155-1.52 7.276.669 9.822 2.344 2.727 5.255 2.5 8.364 1.471a37 37 0 0 0 6.544-2.875c5.234-2.942 10.911-4.168 16.834-4.544 3.036-.193 6.086-.37 9.02-1.278 5.65-1.751 9.318-5.767 12.159-10.716 1.893-3.297 3.595-6.72 6.021-9.675 1.16-1.412 2.4-3.06 4.593-2.323 2.056.691 1.938 2.656 2.138 4.363.193 1.648-.1 3.232-.578 4.812-2.422 8.001-6.668 14.857-13.006 20.31-11.714 10.079-23.791 19.556-38.457 25.247-5.703 2.212-10.556 6.027-13.915 11.379-1.045 1.663-1.918 3.405-2.132 5.404-.499 4.681 1.774 7.408 6.448 7.985 3.781.466 7.039-1.02 10.294-2.505 2.765-1.263 5.445-2.764 8.432-3.403 1.906-.408 4.086-.601 5.484 1.051 1.372 1.621.416 3.519-.225 5.254-.655 1.772-1.756 3.223-3.176 4.466-1.961 1.717-3.768 3.631-5.837 5.202-11.667 8.858-13.61 21.082-11.922 34.481a53 53 0 0 0 4.619 15.903c4.058 8.648 12.534 14.126 20.549 13.373 8.483-.798 11.997-7.149 7.784-14.504-4.279-7.469-7.623-15.079-6.897-23.995.369-4.527 2.081-8.055 5.752-10.793 4.22-3.147 7.565-7.176 10.505-11.51 3.035-4.474 4.138-9.493 3.833-14.862-.179-3.144-.444-6.294-.398-9.437.159-10.684 4.651-18.965 13.765-24.756 3.381-2.149 6.461-4.768 9.718-7.117 6.302-4.545 9.932-10.737 11.666-18.234.628-2.715.911-5.601 2.667-7.968 1.167-1.574 2.539-2.779 4.657-2.218 2.153.57 2.257 2.448 2.325 4.193.329 8.386-2.215 15.86-7.472 22.355-3.691 4.561-7.525 9.009-11.39 13.424-3.154 3.602-6.206 7.271-8.951 11.199-4.884 6.987-6.433 14.593-4.506 22.914 2.116 9.143 1.223 17.826-3.514 26.127-3.93 6.885-7.496 13.942-8.318 22.082-1.792 17.736 11.899 34.306 28.86 34.722 7.671.187 11.389-5.166 8.535-12.313-1.065-2.665-2.835-4.855-4.743-6.958-1.896-2.091-3.801-4.181-5.569-6.378-6.993-8.685-6.966-15.12.224-23.549 4.894-5.736 7.887-12.241 8.158-19.785.133-3.673.214-7.513-.671-11.029-3.342-13.275.72-24.624 8.342-35.205 2.286-3.173 4.51-6.4 6.964-9.439 1.47-1.821 3.482-3.155 6.005-2.264 2.318.818 3.104 2.864 3.406 5.135.301 2.261.616 4.519.925 6.779M673.8 360.651c12.623-.654 26.723 2.41 29.294 16.938.979 5.533-.577 12.019 1.605 17.253 2.162 5.184 8.789 4.373 13.411 4.698 12.303.864 20.59 7.99 22.94 20.221.509 2.648.63 5.865 3.157 7.427 2.212 1.367 5.231 1.156 7.726 1.066 8.133-.292 16.191-1.683 24.076-3.642 5.839-1.451 8.33 7.563 2.485 9.015-7.602 1.889-15.342 3.181-23.156 3.767-5.684.427-11.87.612-16.79-2.747-5.476-3.738-5.535-9.525-7.1-15.336-1.63-6.055-5.987-9.692-12.151-10.333-5.168-.538-10.532-.075-15.37-2.321-5.014-2.328-8.046-6.908-9.015-12.281-1.039-5.756.754-12.739-1.887-18.096-3.517-7.134-12.538-6.626-19.225-6.28-6.013.312-5.996-9.038 0-9.349"/><path d="M732.56 423.668c-.722-3.589-1.612-7.141-2.735-10.626-1.032-3.2-1.974-5.654-3.305-8.42-1.192-2.477-2.54-4.884-4.088-7.157a48 48 0 0 0-1.211-1.691c.555.744-.468-.569-.629-.759a34 34 0 0 0-2.403-2.555c-1.822-1.748-1.759-4.852 0-6.611 1.821-1.821 4.783-1.753 6.611 0 9.483 9.098 14.244 22.758 16.775 35.334.498 2.472-.71 5.048-3.265 5.75-2.305.633-5.25-.778-5.75-3.265m356.735-16.198c.049-3.21.04-6.133.426-9.113.117-.91.226-1.822.412-2.731.194-.955.806-1.484 1.621-1.554.84-.073 1.239.463 1.274 1.361.012.291-.039.602-.083.905-.876 6.088-.828 11.988.027 17.67.565 3.763-.608 6.656-4.089 8.313-.867.413-.82.943-.459 1.53.709 1.154 1.856 1.592 3.078 1.86 1.606.352 3.362.241 5.102-.16 4.249-.98 8.158-1.07 11.947.185.148.049.322.032.58.053-1.017-3.062-2.012-6.024-2.986-8.999-4.902-14.974-5.482-31.528-3.386-47.407.077-.586-.009-.988-.413-1.315-4.705-3.816-9.56-6.902-15.294-8.764-.711-.23-1.015-.178-1.308.706-1.034 3.123-.974 5.94 1.103 8.268a243 243 0 0 1 4.34 5.025c.829.981 1.626 2.003 2.122 3.278 1.184 3.042-.785 6.178-3.995 6.423-.832.064-1.786-.489-2.428.176-.599.621-.753 1.8-1.126 2.725a21 21 0 0 1-.783 1.74c-1.438 2.793-3.677 4.015-5.945 2.985-3.131-1.422-5.258-3.828-4.795-8.328.065-.633-.193-.915-.554-1.12-2.384-1.353-5.008-1.989-7.936-1.728-.674.06-.926.316-1.011 1.138-.457 4.452-2.585 6.444-6.361 5.918-2.676-.373-5.121-1.29-7.18-3.009-1.278-1.067-2.007-2.467-1.729-4.539.067-.506.071-1.007.129-1.513.327-2.829-.765-4.754-2.797-6.384-2.885-2.314-5.84-4.475-8.92-5.936-1.165-.554-2.314-.926-3.409-.853-1.788.119-2.027 1.305-.864 3.841.65 1.417 1.477 2.645 2.317 3.86 2.787 4.034 5.439 8.428 7.83 11.912.962 1.404 1.892 2.486 2.456 4.009 1.385 3.74-.731 7.393-4.663 8.046-3.006.498-5.562-.499-7.939-2.558-1.997-1.73-3.924-3.841-6.34-4.43-3.964-.964-7.048 4.236-8.408 12.022-1.277 7.31.193 10.003 3.549 10.629 1.301.242 2.622-.27 4.25-1.534 3.995-3.103 7.331-3.61 10.53.098 3.164 3.667 2.95 9.084-.998 11a7 7 0 0 1-.957.363c-2.196.67-2.291.75-.78 3.688 3.373 6.557 8.46 11.595 12.787 12.385 2.208.403 4.141-.168 6.176-1.646 1.476-1.072 1.643-1.357 1.523-3.012-.083-1.148-.256-2.349-.2-3.875.098-2.706.919-5.15 2.712-7.098.975-1.058 1.985-1.799 3.012-2.195 3.561-1.373 6.916-1.171 9.611 1.42 1.575 1.514 1.29 2.899-.806 4.638-2.951 2.449-3.414 4.698-1.128 6.87 2.002 1.902 4.489 2.809 7.428 2.522 1.641-.16 2.989-.876 3.802-2.907.606-1.517 1.92-2.175 3.667-1.972 2.404.278 4.465 1.352 6.436 2.58 2.792 1.739 4.369 4.169 4.858 7.127.506 3.062 2.179 4.256 6.977 3.14.95-.222 2.089-.648 3.23-1.175 5.468-2.524 9.445-6.882 6.673-10.348-1.934-2.418-4.971-3.167-8.09-3.4-2.084-.156-4.182.143-6.303.584-2.766.575-5.585.681-8.085-.312-1.535-.609-2.767-1.621-3.354-3.375-.734-2.195.223-4.454 2.368-5.691 2.555-1.474 2.986-2.4 1.866-4.876-1.816-4.01-4.236-7.405-8.299-8.767-2.185-.734-3.411-.011-4.836 2.506-1.713 3.028-4.338 4.457-6.831 4.034-2.226-.379-3.453-2.786-3.134-6.118.096-1.009.363-1.963.643-2.918.447-1.529.939-3.166-.316-4.08-1.313-.955-2.947-.907-4.564.08-1.057.645-1.922 1.126-2.49-.086-.426-.908.191-2.065 1.465-2.886 2.395-1.545 6.189-1.483 7.916.196 1.729 1.68 1.76 4.079.986 6.758-.349 1.207-.776 2.407-.676 3.616.085 1.032.413 1.868 1.399 2.016 1.034.155 1.949-.307 2.717-1.331.126-.168.243-.352.336-.541 2.479-5.019 6.569-5.729 9.98-4.129 2.079.975 3.703 2.594 5.387 4.514"/><path d="M1030.895 362.293c1.567-1.528 3.433-1.582 5.504-.954 4.413 1.338 8.631 4.158 12.645 7.255 2.719 2.098 4.107 4.655 3.508 8.416-.438 2.746.627 3.955 2.474 4.762 1.356.591 2.69 1.26 4.21 1.392 2.008.176 2.565-.368 2.556-2.498-.011-2.457 1.074-3.929 3.329-4.39 4.16-.852 7.791.1 10.956 2.303 1.087.757 1.53 1.972 1.149 3.752-.467 2.176 1.936 5.22 3.816 5.185.738-.014 1.129-.559 1.405-1.188.508-1.16.951-2.346 1.387-3.53.974-2.639 1.895-3.352 4.265-3.256.087.003.175.008.264.001.726-.056 1.64.522 2.129-.343.559-.989-.261-1.71-.744-2.326-1.546-1.967-3.117-3.899-4.773-5.729-3.197-3.536-3.544-7.818-1.701-12.586.18-.466.496-.873-.006-1.324-2.448-2.205-9.587-12.783-12.827-13.81 1.595 4.674 2.642 9.486.168 12.015-5.177 5.292-11.804 5.23-19.368 5.937-3.761.352-7.34-.77-10.831-2.09-1.557-.589-3.109-1.225-4.64-1.487-2.005-.344-3.771-.123-4.739 1.485-.462.769-.544 1.644-.136 3.008"/><path d="M1087.054 373.541s-2.16-2.347-4.667-6.589c-1.495-2.529.728-5.501 2.465-2.987 2.09 3.025 4.214 6.06 6.335 9.338 2.122 3.278-4.133.238-4.133.238m-473.599-9.117c-.817 6.561 3.279 14.017 8.669 16.125 2.578 1.008 5.202.962 7.845.299 2.513-.63 4.741-1.854 6.873-3.285 3.821-2.566 7.634-5.146 11.491-7.659 1.108-.722 2.33-1.289 3.542-1.831 2.14-.957 4.212-.828 6.119.629 1.011.774 1.993 1.587 3.01 2.352.618.464.635 1.122.696 1.785.255 2.764.655 5.502 1.325 8.202.866 3.489 2.254 6.727 4.443 9.596.377.493.813.885.113 1.502-3.329 2.935-6.646 5.87-10.629 7.942-4.025 2.093-7.657 1.635-11.044-1.378-2.316-2.061-4.486-4.286-6.988-6.141-7.558-5.605-18.833-6.232-26.869-1.365a31.8 31.8 0 0 0-10.21 9.839c-.42.64-.827 1.294-1.051 2.722 1.736-.869 3.118-1.639 4.56-2.266 5.24-2.28 10.615-3.945 16.445-3.259 3.023.356 5.771 1.357 8.204 3.576-3.777 1.564-6.923 3.749-9.301 6.946-1.499 2.015-2.669 4.206-3.667 6.502a112 112 0 0 1-2.022 4.384c-1.641 3.369-3.588 4.321-7.279 3.601-.319-.062-.64-.216-.947.034 1.403 4.679 6.57 7.013 11.418 5.161 2.347-.897 4.192-2.491 5.804-4.343 2.508-2.883 4.908-5.86 7.405-8.753a25.5 25.5 0 0 1 6.052-5.157c.755-.46 1.335-.443 2.108.057 7.646 4.941 15.6 4.408 22.563-1.444 1.793-1.506 3.358-3.224 4.744-5.099s2.563-3.884 3.651-6.061c.648.518.748 1.251.953 1.896 1.779 5.599 1.779 11.225.269 16.887-.212.798-.714 1.2-1.306 1.616-5.191 3.648-11.007 5.966-16.981 7.931-7.056 2.32-13.841 5.106-19.351 10.341-5.042 4.791-8.885 10.455-12.238 16.484a145 145 0 0 0-6.181 12.532c-2.903 6.66-8.231 11.005-14.277 14.623-2.317 1.387-4.79 2.473-7.357 3.645 4.785 2.097 9.366 1.292 13.933-.059 8.042-2.379 13.557-7.912 18.191-14.564 4.147-5.951 7.736-12.294 12.497-17.816 3.956-4.587 8.545-8.37 13.98-11.086.67-.335 1.307-.784 2.313-.842-1.502 1.613-2.938 3.05-4.255 4.588-6.261 7.313-9.488 15.555-7.626 25.324.84 4.405 2.539 8.492 4.589 12.45 2.248 4.34 4.941 8.42 7.429 12.62a57 57 0 0 1 1.636 2.899c1.69 3.275 3.253 6.587 2.299 10.638 1.781-1.888 2.57-4.091 2.619-7.058.058-3.512-1.015-6.78-2.226-10.008-2.045-5.449-4.558-10.74-5.666-16.506-.355-1.848-.678-3.714-.837-5.586-.567-6.671 1.633-12.301 6.503-16.909 2.984-2.823 6.264-5.294 9.37-7.97 4.143-3.57 7.816-7.534 10.473-12.362.104-.189.208-.398.62-.342.433 3.954.047 7.892-.634 11.811-.522 3.003-1.162 5.985-1.644 8.994-1.39 8.677.842 16.627 5.154 24.068.969 1.673.957 2.935-.041 4.518-2.186 3.467-4.396 6.936-6.3 10.56-4.271 8.13-.99 17.71 7.104 21.174.752.322 1.763.988 2.305.564.68-.531-.152-1.5-.32-2.267-.379-1.736-.755-3.464-.861-5.244-.17-2.864.467-5.465 2.164-7.843 6.83-10.899 10.57-13.099 3.72-35.009-1.166-3.731-1.5-7.579-1.04-11.453.476-.147.567.199.705.384 3.927 5.288 9.162 8.197 15.718 8.886 3.242.341 6.518.679 9.45 2.364 4.206 2.417 6.579 6.318 8.609 10.507.26.537.505 1.082.868 1.862 2.244-3.491 2.947-7.097 2.413-10.912-1.19-8.515-6.082-13.584-14.67-15.513-4.433-.995-8.945-1.664-13.257-3.175-3.113-1.09-6-2.573-8.64-4.566-.783-.591-1.116-1.249-1.238-2.198-.76-5.918-2.348-11.529-6.355-16.172-.643-.745-.272-1.456-.11-2.188 2.092-9.408 1.033-18.398-3.545-26.928-1.351-2.516-3.278-4.6-5.095-6.762-2.566-3.055-4.288-6.527-5.477-10.4-1.027-10.634-2.38-26.26-12.149-30.232-1.316-.535-7.391-13.638-7.768-12.299 5.974 13.437 4.41 20.078 4.722 23.648-7.496-.966-13.279 2.443-18.61 6.989-2.403 2.049-4.689 4.238-7.132 6.237-3.257 2.666-4.767 2.692-8.127.156-2.294-1.731-4.59-3.494-6.365-6.14m-8.851-48.429c-4.509 2.486-9.031 4.949-13.527 7.459-2.674 1.493-6.744 3.383-7.538 6.68-.956 3.974 3.054 7.868 5.38 10.516 3.158 3.594 6.051 7.286 7.331 11.986 2.566 9.419-2.096 17.496-10.134 22.296-8.131 4.855-17.704 6.203-25.535.144-2.012-1.557-1.607-4.969 0-6.611 1.949-1.992 4.625-1.537 6.611 0 5.54 4.287 16.282-.974 19.377-6.236 4.389-7.465-4.124-14.289-8.085-19.542-4.958-6.576-6.192-15.088-.259-21.487 2.544-2.744 5.937-4.604 9.174-6.393 4.16-2.298 8.324-4.59 12.486-6.885 5.273-2.907 9.995 5.164 4.719 8.073"/><path d="M585.46 336.549c2.788 2.879 6.207 7.116 9.672 3.921 2.485-2.29 2.835-5.227 3.619-8.339.804-3.191 2.144-6.304 4.698-8.487 2.549-2.179 5.683-3.318 8.918-4.043 2.876-.645 5.993-.952 8.599-2.415 5.628-3.158 8.618-9.605 11.367-15.147 2.674-5.39 10.74-.66 8.073 4.719-3.399 6.853-7.337 13.978-14.048 18.106-3.305 2.033-7.005 2.79-10.741 3.588-2.742.585-6.025 1.109-7.219 3.991-1.423 3.437-1.413 7.22-3.361 10.504-2.015 3.398-5.348 6.718-9.269 7.76-6.852 1.821-12.49-2.973-16.919-7.547-4.187-4.325 2.416-10.943 6.611-6.611"/><path d="M381.103 463.69c.85-.512 1.719-.938 2.521-.909 2.346.307 4.118 1.361 5.796 2.592 3.53 2.591 6.591 5.701 9.532 8.913 4.072 4.449 8.496 8.387 13.904 11.207 2.9 1.512 5.425 3.485 6.455 6.979.74 2.513.284 3.128-2.273 2.586-8.392-1.779-16.274-4.649-23.247-9.831-4.647-3.453-9.662-6.285-15.396-7.62-6.021-1.403-6.698-3.376-2.991-8.616a18.8 18.8 0 0 1 5.699-5.301m100.11-20.471c.048-3.75 2.3-4.998 5.59-3.13 2.28 1.295 3.76 3.349 4.94 5.544 4.028 7.487 10.432 11.419 18.584 12.989 2.121.408 4.255 1.004 6.234 1.86 4.772 2.063 5.351 4.455 2.668 8.69-2.436 3.844-6.035 5.847-10.191 7.122-4.052 1.244-8.248 2.083-12.086 3.934-2.051.99-2.318.312-2.278-1.616.174-8.351-2.493-15.816-7.258-22.609-1.938-2.764-3.721-5.632-5.115-8.721-.583-1.293-1.121-2.603-1.088-4.063m-149.718-64.196c.45 2.939.341 5.879.017 8.802-1.6 14.416 3.091 26.548 13.159 36.792 3.069 3.123 5.514 6.716 7.671 10.532 3.855 6.823 2.032 13.22-1.283 19.53-1.096 2.087-1.898 1.356-2.81-.271-2.272-4.052-3.483-8.438-4.27-12.957-1.312-7.533-4.454-14.083-10.2-19.239-3.748-3.362-5.441-7.481-5.048-12.516.513-6.566-.273-13.027-1.511-19.479-1.12-5.844-.554-11.658 1.04-17.743 2.02 1.995 2.865 4.135 3.235 6.549m178.09 32.332c.741-6.909 1.004-13.605-1.28-20.313-1.134-3.33.318-5.681 3.594-7.007 1.202-.487 2.474-.913 3.752-1.082 8.142-1.077 14.401-4.692 17.535-12.677.868-2.213 2.157-2.325 3.974-.906 2.459 1.918 5.352 2.739 8.432 3.221 4.644.728 9.095-.143 14.095-1.308-.407 1.468-.82 2.476-.95 3.519-.313 2.519-1.472 2.893-3.735 2.008-2.008-.785-4.18-1.192-6.308-1.618-8.432-1.686-16.073-.807-21.674 6.736-1.051 1.415-2.691 2.198-4.223 3.026-10.429 5.632-11.9 14.249-7.076 24.697 1.155 2.502 2.124 4.955 2.368 7.727.631 7.169 4.469 12.068 10.917 15.07 3.002 1.398 6.173 2.051 9.431 2.471.731.094 2.231-.614 2.007 1.164-.133 1.06-.775 1.39-1.933 1.672-3.819.933-7.319-.237-10.881-1.125-12.605-3.143-19.425-12.418-18.045-25.275" fill="#f9e549"/><path d="M454.89 249.378c.104-.023.216-.042.326-.065h.923c.307.117.517.412.467 1.129-.411 5.83 2.703 10.138 6.268 14.213 1.819 2.082 3.194 4.368 4.01 7.022 1.514 4.925 4.559 8.652 9.171 10.952 7.357 3.669 14.744 3.509 21.213-1.59 4.818-3.798 9.88-.998 14.743-1.823.204-.034.549.328.72.58 3.023 4.421 7.195 7.458 12.385 9.919-3.559 1.585-6.586.556-9.532-.24-2.838-.766-5.637-1.617-8.573-1.949-10.273-1.162-17.791 3.207-21.73 12.649-.418 1.002-.896 1.979-1.37 2.957-1.023 2.112-2.144 1.853-3.217.063-1.581-2.642-2.409-5.593-3.206-8.523-1.908-7.014-6.104-11.536-13.34-13.252-4.423-1.049-5.103-2.032-5.253-6.562-.186-5.585-2.393-10.1-6.723-13.571-3.573-2.863-7.205-5.514-11.978-6.267-2.377-.375-2.609-2.944-2.327-4.733a3.4 3.4 0 0 1 .313-.974h8.01c2.843.566 5.735.719 8.7.065"/><path d="M544.08 409.43c-.528-1.516.798-2.109 1.759-2.727 2.871-1.843 6.088-2.775 9.405-3.441 1.458-.293 2.026.175 1.81 1.673-.315 2.194-1.081 4.245-2.423 5.956-1.249 1.591-3.062.068-4.585.486-.976 0-1.954-.037-2.928.009-1.496.07-2.568-.607-3.038-1.956" fill="#f9e549"/><path d="M505.914 268.543c-7.764.641-7.764.641-14.93 4.876-6.229 3.68-12.854 1.398-15.257-5.414a30.8 30.8 0 0 0-5.855-10.075c-1.134-1.305-2.104-2.767-3.04-4.227-.733-1.142-1.228-2.633-.133-3.611 1.197-1.07 2.013.606 2.972 1.078.866.425 1.654 1.059 2.379 1.709 6.643 5.965 14.371 9.079 23.321 9.668 4.198.276 8.267 1.664 10.543 5.996" fill="#fbea04"/><path d="M475.865 389.217c-2.805.067-4.892 2.308-4.762 5.113.136 2.947 2.521 5.235 5.293 5.081a4.846 4.846 0 0 0 4.564-5.008c-.11-3.166-2.164-5.256-5.095-5.186m-17.055 15.576c-2.915.084-4.667 2.16-4.628 5.481.04 3.321 1.838 5.327 4.781 5.332 3.058.006 4.859-2.118 4.785-5.642-.068-3.24-1.993-5.256-4.938-5.171m92.789-74.354c1.213 4.315 3.029 8.388 5.221 12.292.74 1.319.354 1.926-1.057 2.291-3.471.9-6.71.895-9.316-2.03-2.247-2.521-4.399-5.129-6.706-7.593-6.939-7.413-16.163-9.117-25.322-4.788-4.719 2.23-7.223 5.903-7.005 11.14.118 2.814.671 5.611 1.041 8.415.464 3.513-.365 4.89-3.827 5.592-2.337.474-4.745.675-7.133.825-13.603.856-18.944 7.193-17.385 20.716.037.324.117.645.14.97.465 6.269 3.322 11.934 4.549 18.01 1.064 5.265.395 10.143-3.183 14.485-1.924-4.814-4.257-6.674-7.378-5.784-2.544.726-3.731 2.564-3.483 5.186.303 3.194 3.206 5.047 7.655 4.921-1.737 2.984-4.474 3.697-7.273 4.321-12.203 2.718-21.977-1.888-30.496-10.165-2.502-2.431-4.876-4.978-7.932-6.761-6.623-3.865-13.722-3.83-20.928-2.476-3.926.737-6.627-.741-9.061-3.724-5.471-6.706-6.743-14.312-5.863-22.684 1.354-12.883 5.952-23.027 19.728-26.913 5.308-1.497 10.308-4.122 14.729-7.604 8.506-6.7 9.166-17.398 1.429-25.007-2.166-2.131-4.618-3.982-7.004-5.879-2.075-1.649-3.157-3.642-3.471-6.352-.741-6.398-3.698-9.401-10.089-10.693a49 49 0 0 0-5.488-.809c-5.613-.486-9.223-3.703-11.324-8.617-2.735-6.399-2.456-12.944 1.108-18.844 2.293-3.796 4.008-8.468 8.969-10.146.083.387.18.599.164.802-1.179 14.165 3.415 21.178 16.963 25.656 2.837.938 4.401 2.582 4.478 5.64.052 2.065.186 4.144.493 6.185.764 5.071 3.277 8.972 8.085 11.084 1.881.827 3.884 1.386 5.846 2.022 5.671 1.84 8.744 5.815 9.615 11.62.933 6.223-1.144 11.583-4.754 16.493-3.976 5.409-8.961 9.807-14.193 13.925-4.706 3.704-9.606 7.163-14.304 10.877-5.557 4.391-8.739 9.948-7.746 17.312 1.285 9.523 7.652 14.392 16.134 16.819 8.355 2.391 16.875 4.209 25.332 6.243.942.226 1.942.305 2.915.305 10.151.001 15.419-7.557 11.75-16.956-.907-2.321-2.125-4.527-3.296-6.736-1.872-3.532-1.973-7.141-.292-10.683 2.255-4.756 5.14-9.131 9.147-12.617 3.744-3.256 7.835-5.763 13.021-6.204 11.357-.964 15.525-5.029 17.154-16.284.247-1.717.48-3.463.999-5.108.788-2.495 2.362-4.57 4.933-5.306 9.463-2.706 18.629-2.595 26.397 4.391 4.395 3.954 9.22 6.496 15.127 6.839 1.06.062 1.84.149 2.187 1.386" fill="#f9e549"/><path d="M448.754 465.84c2.796.123 5.01-1.931 5.087-4.719.077-2.809-2.227-5.165-5.078-5.193-2.786-.027-5.092 2.089-5.181 4.755-.092 2.726 2.216 5.028 5.172 5.157m7.691 8.881c2.77-.026 5.286-2.881 5.27-5.979-.015-2.879-2.486-5.072-5.663-5.025-2.769.042-4.803 2.169-4.838 5.059-.038 3.218 2.384 5.97 5.231 5.945m-76.846-166.172c6.123 3.14 12.65 4.575 19.228 6.052 2.928.658 5.378 1.837 5.78 5.298.475 4.087-.647 6.516-4.142 8.415-3.365 1.827-7.053 2.841-10.651 4.09-4.957 1.721-10.223 3.405-12.807 8.38-2.907 5.595-6.98 10.696-9.161 16.449-6.596 17.403-5.536 34.43 5.657 49.947 4.476 6.204 10.17 11.334 16.117 16.171 5.901 4.8 12.455 7.423 20.147 7.073 6.097-.277 10.651 2.31 13.843 7.56 2.782 4.576 6.697 7.959 11.607 10.204 3.577 1.635 7.272 2.89 11.044 3.975 7.573 2.181 13.702 6.166 16.624 13.893 2.249 5.949 2.798 12.081 1.381 18.302-1.774 7.787-3.859 9.64-11.64 10.778-1.435.21-2.336.266-1.761-1.729.504-1.754.727-3.585.532-5.484-1.153-11.247-7.418-19.039-16.666-24.799-3.798-2.366-7.766-4.563-10.801-7.866-7.175-7.811-15.895-12.733-26.221-14.981-5.682-1.237-10.132-4.429-13.454-9.16-3.61-5.141-8.004-9.5-13.1-13.13-6.86-4.886-11.17-11.349-13.274-19.54-1.745-6.792-2.139-13.437-.648-20.33 3.416-15.796-.917-24.078-15.746-30.79-1.587-.718-3.204-1.367-4.783-2.099-2.766-1.281-5.568-2.509-8.034-4.335-1.855-1.372-3.894-2.885-4.155-5.248-.486-4.392.189-8.763 1.062-13.968 3.254 5.81 7.755 9.241 11.706 13.248 10.218 10.366 32.764 5.294 40.237-6.28 3.613-5.596 3.206-10.207-1.583-14.944-3.058-3.024-6.755-5.134-10.494-7.157-5.284-2.86-8.105-7.393-9.18-13.171-.521-2.801-.372-5.655-.672-8.458-.438-4.101.851-7.171 4.48-9.397 2.449 2.631 3.502 5.906 3.637 9.437.431 11.179 6.132 18.589 15.891 23.594" fill="#f9e549"/><path d="M455.215 249.313h-9.026a33.5 33.5 0 0 1-4.456-1.186c-1.805-.626-2.999.049-3.554 1.186h-10.014c-.005-1.047.012-2.166.012-3.564-3.183 1.829-6.407 2.931-9.764 3.564h-27.581a21.6 21.6 0 0 0 6.141-3.239c3.922-2.956 8.431-4.439 13.288-5.017 4.438-.528 8.787-1.397 12.807-3.528 2.049-1.086 4.305-1.406 6.645-1.399 5.414.016 10.579 1.342 15.676 2.93 3.349 1.044 6.569 1.085 9.937.085 4.262-1.266 8.566-1.412 12.827.25 4.008 1.562 7.591 3.78 10.794 6.637a29 29 0 0 0 4.466 3.281h-27.275c-.262-.1-.59-.069-.923 0"/><path d="M469.671 251.17c-.959-.472-1.775-2.148-2.972-1.078-1.095.978-.6 2.469.133 3.612.936 1.459 1.906 2.921 3.04 4.226a30.8 30.8 0 0 1 5.854 10.075c2.404 6.812 9.029 9.094 15.257 5.414 7.167-4.235 7.167-4.235 14.931-4.876-2.276-4.332-6.345-5.72-10.543-5.996-8.95-.588-16.679-3.703-23.322-9.667-.724-.651-1.513-1.285-2.378-1.71m64.614 71.044c-7.768-6.986-16.934-7.097-26.397-4.391-2.571.736-4.145 2.811-4.932 5.306-.52 1.645-.752 3.391-1 5.108-1.629 11.255-5.796 15.32-17.154 16.284-5.185.441-9.276 2.948-13.02 6.204-4.008 3.486-6.893 7.861-9.148 12.617-1.68 3.542-1.58 7.151.292 10.683 1.171 2.209 2.39 4.415 3.296 6.736 3.669 9.399-1.599 16.957-11.75 16.956-.973 0-1.972-.079-2.915-.305-8.456-2.034-16.976-3.853-25.332-6.243-8.482-2.427-14.848-7.296-16.133-16.819-.993-7.364 2.188-12.921 7.745-17.312 4.699-3.714 9.598-7.173 14.304-10.877 5.232-4.118 10.217-8.516 14.194-13.925 3.609-4.91 5.686-10.27 4.753-16.493-.87-5.805-3.943-9.78-9.614-11.62-1.963-.636-3.965-1.195-5.847-2.022-4.808-2.112-7.321-6.013-8.084-11.084-.307-2.041-.442-4.12-.493-6.186-.077-3.057-1.641-4.701-4.479-5.639-13.547-4.478-18.141-11.491-16.962-25.656.016-.203-.082-.415-.165-.802-4.961 1.678-6.676 6.35-8.968 10.146-3.564 5.899-3.843 12.445-1.108 18.844 2.101 4.914 5.71 8.131 11.323 8.617 1.84.16 3.678.443 5.489.809 6.391 1.292 9.347 4.295 10.089 10.693.313 2.71 1.395 4.703 3.47 6.352 2.387 1.897 4.838 3.748 7.004 5.879 7.738 7.609 7.077 18.307-1.429 25.007-4.421 3.482-9.421 6.107-14.729 7.604-13.776 3.886-18.373 14.03-19.728 26.913-.88 8.372.392 15.978 5.864 22.684 2.433 2.983 5.134 4.461 9.06 3.724 7.206-1.354 14.305-1.39 20.928 2.475 3.056 1.784 5.431 4.331 7.933 6.762 8.518 8.277 18.292 12.883 30.495 10.165 2.8-.624 5.536-1.337 7.273-4.321-4.448.125-7.351-1.727-7.655-4.921-.248-2.622.939-4.46 3.483-5.186 3.121-.89 5.455.97 7.379 5.784 3.577-4.342 4.247-9.22 3.182-14.485-1.227-6.076-4.084-11.741-4.548-18.01-.024-.325-.104-.646-.141-.97-1.558-13.523 3.782-19.86 17.386-20.716 2.388-.15 4.795-.351 7.133-.825 3.462-.702 4.291-2.079 3.826-5.592-.369-2.804-.923-5.601-1.04-8.415-.219-5.237 2.286-8.91 7.004-11.14 9.159-4.329 18.384-2.625 25.323 4.788 2.306 2.464 4.459 5.072 6.705 7.593 2.607 2.925 5.845 2.93 9.316 2.03 1.411-.365 1.797-.972 1.057-2.291-2.191-3.904-4.008-7.977-5.221-12.292-.347-1.237-1.126-1.324-2.186-1.386-5.908-.343-10.732-2.885-15.128-6.839m-150.252-51.46c.161-2.828.63-5.67 1.779-8.27 1.131-2.56-.025-2.454-2.062-2.474-7.1-.072-12.604 3.496-18.265 7.472 5.86 4.003 7.318 10.105 7.689 16.323.444 7.437 3.945 12.384 10.248 15.869 4.063 2.245 8.384 3.591 12.887 4.492 1.388.278 2.786.512 4.156.857 8.26 2.078 12.685 6.464 13.409 13.244 1.009 9.45-1.837 14.883-9.904 19.016-4.091 2.096-8.517 3.294-12.814 4.832-4.135 1.48-7.137 3.871-8.414 8.331-.584 2.04-1.699 4.086-3.067 5.715-5.612 6.687-6.133 14.596-6.137 22.787-.008 16.32 9.603 26.909 21.171 36.484 4.374 3.62 9.027 5.591 14.886 5.466 9.353-.198 16.936 3.587 21.902 11.803 2.907 4.807 7.545 7.065 12.548 8.819 2.463.863 4.982 1.564 7.454 2.399 19.103 6.455 24.548 23.573 22.861 39.085-.245 2.251-.772 4.472-1.236 7.092 2.775-.235 5.35-.507 7.931-.65 1.519-.083 1.556-1.301 1.953-2.243 3.778-8.968 2.052-17.259-3.189-25.07-2.613-3.893-5.22-7.787-6.955-12.168-2.081-5.256-2.263-10.399 1.271-15.206 3.629-4.936 7.877-6.332 13.743-4.598 5.231 1.546 9.012 4.961 11.435 9.636 2.975 5.735 7.524 8.812 13.778 9.719 1.176.17 2.488.334 3.442.953 5.645 3.661 10.35 2.168 14.521-2.785-.945-.26-2.085-.619-3.246-.888-20.146-4.663-29.803-18.118-27.486-38.604.525-4.639.263-9.013-1.202-13.496-2.929-8.97 1.498-17.255 10.443-20.228.722-.24 1.454-.557 2.198-.612 6.808-.499 11.172-3.75 14.166-10.151 2.972-6.357 9.202-7.544 15.179-3.405 4.535 3.141 9.104 2.95 14.031 2.008 2.798-.535 3.835-3.645 6.753-4.244 1.001-.206.117-2.607-.296-3.896-.46-1.432-1.527-.281-2.141-.08-8.972 2.939-16.246.503-22.115-6.73-1.578-1.944-3.297-3.774-4.96-5.649-3.5-3.949-7.818-4.217-12.559-2.881-2.279.642-3.284 1.902-2.807 4.296.318 1.599.518 3.224.742 4.841 1.437 10.377-3.283 16.502-13.712 17.765-3.349.406-6.708.727-10.059 1.125-2.983.355-4.289 2.016-4.317 5.072-.044 4.747.758 9.298 2.269 13.78 2.095 6.217 4.461 12.662 2.564 19.154-5.11 17.493-14.192 25.119-31.967 24.58-12.073-.367-21.397-6.358-29.397-14.527-5.179-5.288-10.916-7.493-17.947-5.928-10.454 2.327-17.326-2.095-22.517-10.79-8.372-14.023-6.913-37.37 3.294-50.146 3.621-4.532 8.533-6.98 13.697-9.128 3.615-1.504 7.257-2.958 10.8-4.617a27 27 0 0 0 5.264-3.249c3.593-2.848 3.838-6.968.506-10.143-2.437-2.321-5.214-4.28-7.782-6.469-3.11-2.65-5.08-5.987-5.385-10.107-.192-2.604-1.369-3.773-3.989-4.113-4.071-.529-8.277-.617-11.969-2.858-10.034-6.092-13.717-15.308-13.074-26.612m-23.962 4.763c-3.629 2.227-4.918 5.297-4.48 9.398.3 2.803.151 5.657.672 8.457 1.075 5.778 3.896 10.312 9.18 13.172 3.739 2.023 7.436 4.132 10.494 7.157 4.789 4.737 5.197 9.347 1.583 14.943-7.473 11.575-30.019 16.646-40.237 6.281-3.95-4.007-8.452-7.438-11.706-13.248-.873 5.204-1.548 9.575-1.062 13.967.261 2.364 2.3 3.876 4.155 5.249 2.466 1.826 5.268 3.053 8.034 4.335 1.579.732 3.197 1.381 4.783 2.099 14.829 6.712 19.162 14.994 15.746 30.79-1.491 6.893-1.097 13.537.648 20.329 2.104 8.192 6.414 14.654 13.274 19.541 5.096 3.63 9.49 7.988 13.1 13.13 3.322 4.731 7.772 7.923 13.454 9.159 10.326 2.248 19.046 7.17 26.221 14.982 3.035 3.303 7.003 5.5 10.801 7.866 9.248 5.759 15.513 13.552 16.666 24.799.195 1.899-.028 3.73-.532 5.484-.574 1.995.326 1.939 1.761 1.729 7.781-1.139 9.866-2.992 11.64-10.778 1.417-6.221.868-12.353-1.381-18.302-2.922-7.728-9.051-11.712-16.624-13.893-3.772-1.086-7.466-2.34-11.044-3.976-4.91-2.244-8.825-5.628-11.607-10.204-3.192-5.25-7.746-7.836-13.843-7.559-7.691.35-14.246-2.273-20.147-7.074-5.947-4.836-11.641-9.966-16.117-16.17-11.193-15.517-12.253-32.544-5.657-49.948 2.181-5.752 6.255-10.853 9.161-16.448 2.584-4.975 7.85-6.66 12.807-8.38 3.598-1.249 7.286-2.263 10.651-4.09 3.496-1.9 4.617-4.329 4.142-8.415-.402-3.461-2.852-4.64-5.78-5.298-6.578-1.477-13.105-2.913-19.228-6.052-9.759-5.005-15.46-12.415-15.891-23.594-.135-3.532-1.188-6.807-3.637-9.438m-14.07 15.458c-.041-.429-.12-.854-.332-2.331-4.511 7.093-9.035 13.045-13.671 18.913-.929 1.177-.641 2.505-.24 3.745 2.628 8.117 7.677 14.374 15.06 18.557 6.045 3.426 19.032-.48 22.646-6.423.842-1.384.477-2.272-.608-3.046-2.033-1.453-4.015-3.04-6.22-4.179-10.297-5.319-15.554-13.881-16.635-25.236m-19.215 67.549c.112.871.552 1.361 1.27 1.726 11.567 5.878 14.52 16.004 12.969 27.79-1.569 11.91 2.292 21.59 10.42 29.954a55 55 0 0 1 9.334 12.938c5.061 9.693 3.43 23.298-3.996 31.415-1.572 1.717-1.541 2.653.019 4.127 2.043 1.931 3.929 4.029 6.104 6.285 1.163-2.522 2.069-4.668 3.128-6.735 1.302-2.541 3.092-4.739 5.166-6.696 8.053-7.598 15.369-8.045 24.266-1.486a53 53 0 0 1 7.545 6.743c4.89 5.302 10.049 10.156 16.531 13.628 6.179 3.31 9.334 8.999 9.957 15.938.178 1.985.845 2.752 2.758 2.572.537-.051 1.087.027 1.632.034 6.014.07 8.4-2.738 7.561-8.895-.975-7.158-5.222-12.165-11.059-15.778-6.249-3.867-11.967-8.278-17.141-13.499-4.07-4.106-9.144-6.646-14.787-7.913-9.726-2.183-17.889-6.692-23.37-15.327-.164-.259-.495-.413-.89-.728.541 2.907-.129 5.243-2.972 6.857 2.95 1.408 5.295 3.03 4.36 6.512-.681 2.537-2.674 3.748-5.133 3.801-2.264.05-3.955-1.186-4.59-3.467-.916-3.293 1.093-5.024 3.735-6.395-3.904-1.461-5.83-4.097-5.183-6.955.647-2.861 2.727-4 7.403-3.705-2.488-2.102-4.592-3.959-6.778-5.714-15.86-12.733-20.756-29.341-17.327-48.9.168-.964.467-1.907.611-2.873 1.294-8.689-.69-12.625-8.639-16.598-4.462-2.23-9.052-4.205-14.07-6.519.43 2.847.845 5.349 1.166 7.863m.434 31.693c1.237 6.452 2.024 12.913 1.51 19.479-.393 5.035 1.301 9.154 5.048 12.516 5.746 5.157 8.888 11.706 10.201 19.239.786 4.519 1.997 8.905 4.269 12.957.913 1.628 1.715 2.358 2.81.272 3.315-6.311 5.139-12.708 1.283-19.531-2.157-3.816-4.601-7.408-7.671-10.532-10.068-10.244-14.758-22.376-13.159-36.792.325-2.923.433-5.863-.017-8.802-.37-2.414-1.214-4.554-3.234-6.549-1.595 6.085-2.161 11.899-1.04 17.743m51.175 87.39c5.734 1.336 10.749 4.168 15.396 7.621 6.973 5.182 14.855 8.052 23.247 9.831 2.556.542 3.013-.073 2.273-2.586-1.03-3.494-3.555-5.467-6.455-6.979-5.409-2.82-9.832-6.758-13.904-11.207-2.941-3.212-6.002-6.322-9.532-8.913-1.678-1.231-3.451-2.285-5.796-2.592-.802-.03-1.671.397-2.521.909a18.8 18.8 0 0 0-5.7 5.301c-3.706 5.24-3.029 7.213 2.992 8.615m116.279 1.005c-.04 1.927.227 2.606 2.278 1.616 3.838-1.851 8.034-2.691 12.086-3.934 4.156-1.276 7.755-3.279 10.191-7.122 2.683-4.235 2.104-6.627-2.668-8.691-1.979-.855-4.112-1.451-6.234-1.86-8.152-1.569-14.556-5.501-18.583-12.988-1.181-2.196-2.661-4.249-4.941-5.544-3.29-1.869-5.542-.621-5.59 3.13-.033 1.46.505 2.77 1.089 4.063 1.393 3.089 3.176 5.957 5.114 8.721 4.765 6.793 7.432 14.258 7.258 22.609m43.837-40.857c1.158-.282 1.8-.612 1.933-1.672.224-1.778-1.276-1.07-2.007-1.164-3.258-.42-6.429-1.073-9.431-2.471-6.448-3.002-10.286-7.901-10.917-15.071-.244-2.771-1.213-5.224-2.368-7.726-4.824-10.448-3.352-19.065 7.076-24.697 1.532-.828 3.172-1.611 4.223-3.026 5.601-7.543 13.242-8.422 21.674-6.736 2.128.426 4.3.833 6.308 1.618 2.263.885 3.422.511 3.735-2.008.13-1.043.543-2.051.95-3.519-5 1.165-9.451 2.036-14.094 1.308-3.081-.482-5.974-1.303-8.432-3.221-1.818-1.419-3.107-1.307-3.975.906-3.134 7.985-9.393 11.6-17.535 12.677-1.278.169-2.55.595-3.752 1.082-3.276 1.326-4.728 3.677-3.594 7.007 2.284 6.708 2.021 13.404 1.28 20.313-1.38 12.857 5.44 22.132 18.045 25.275 3.562.888 7.062 2.058 10.881 1.125m7.974-16.565c-3.324-.421-6.303-1.5-8.745-3.869-4.752-4.607-4.973-11.29-.309-15.979 4.412-4.435 10.111-6.196 16.039-7.436 1.017-.213 2.934.383 2.531-1.542-.38-1.817 1.228-4.396-1.588-5.403-3.791-1.356-7.639-2.565-11.7-2.808-3.105-.186-5.776.633-7.728 3.293-2.109 2.873-5.111 4.661-8.113 6.462-4.851 2.91-5.725 5.117-3.227 10.265 2.121 4.371 3.574 8.788 4.177 13.613.503 4.022 5.138 7.001 10.707 7.438 5.538.434 6.018.202 7.956-4.034m3.561-9.814c1.523-.418 3.336 1.106 4.585-.486 1.342-1.71 2.108-3.762 2.423-5.956.216-1.497-.351-1.965-1.81-1.673-3.316.666-6.534 1.598-9.405 3.442-.961.617-2.287 1.21-1.759 2.726.47 1.35 1.542 2.026 3.038 1.956.974-.046 1.953-.009 2.928-.009m-32.882-143.068c3.349 7.642 8.946 12.005 17.024 13.702 8.627 1.812 14.868 6.905 18.988 14.676 3.009 5.674 4.396 11.811 5.239 18.095 1.075 8.017 2.295 16.014 6.602 23.061 7.461 12.208 8.313 24.867 3.445 38.222-2.047 5.613-3.686 11.455-2.276 17.589 2.62 11.402-.97 21.004-8.437 29.535-3.248 3.712-6.146 7.688-7.315 12.594-2.311 9.701-6.974 17.555-16.519 21.755-1.755.772-2.59 2.1-2.32 4.171.441 3.372-.729 6.423-2.181 9.406-4.299 8.838-11.692 13.498-20.977 15.587-5.402 1.215-10.274 3.271-14.407 7.178-3.852 3.642-8.724 5.305-14.034 5.366-5.292.061-10.377 1.129-15.365 2.78-9.182 3.04-18.619 4.524-28.277 4.428-17.982-.179-35.07-3.429-49.901-14.555-4.61-3.458-9.937-5.256-15.714-5.901-4.485-.502-8.931-1.831-12.374-4.741-11.709-9.896-21.207-21.312-23.762-37.131-.905-5.606-2.888-10.715-7.282-14.611-6.425-5.696-9-12.885-8.334-21.371.36-4.584.123-9.166-.827-13.665-1.298-6.15-1.662-12.305-.47-18.496.855-4.442.806-8.837.075-13.31-1.476-9.029-2.918-18.075-2.8-28.733-.713-13.466 3.294-26.732 13.644-37.855 1.989-2.136 3.647-4.626 5.197-7.116a56.1 56.1 0 0 1 12.248-13.927c3.38-2.761 6.746-5.513 8.101-9.968.3-.987 1.03-2.022 1.857-2.641 8.135-6.092 16.242-12.232 27.218-11.969a21.9 21.9 0 0 0 7.603-1.15h27.58c-.256.048-.508.116-.766.158-.559.093-.89.488-1.174 1.014-4.065 7.535-.288 17.355 7.056 18.83 8.95 1.798 13.242 8.209 13.239 17.305-.002 5.103.746 6.485 5.712 7.599 17.045 3.825 22.208 21.716 16.924 35.103-2.827 7.162-7.722 12.845-13.285 17.987-5.688 5.256-11.792 10.009-18.021 14.605-1.751 1.291-3.534 2.576-5.101 4.074-4.715 4.512-3.934 10.883 1.718 14.257 4.299 2.567 9.186 3.378 14 4.177 3.994.662 7.896 1.533 11.718 2.837.821.28 1.675.52 2.533.627 1.625.203 3.461.507 4.613-.88 1.212-1.459-.19-2.878-.792-4.168-1.558-3.341-3.66-6.422-4.414-10.136-.619-3.051-.908-6.161.117-9.058 4.867-13.758 13.35-24.095 27.904-28.307 2.057-.595 4.315-.469 6.468-.761 2.942-.399 4.683-1.965 5.051-5.062.37-3.128.734-6.267 1.757-9.286 2.194-6.474 6.5-10.987 13.121-12.504 12.837-2.941 24.924-1.748 34.987 7.952 1.596 1.538 3.485 2.578 5.672 3.072 1.111.251 2.011.329 1.781-1.248-1.106-7.593-2.52-15.075-7.833-21.105-2.023-2.297-3.941-3.663-7.001-1.066-6.985 5.932-14.963 5.661-23.142 2.96-2.726-.9-5.496-1.413-8.354-1.134-4.021.391-7.336 1.695-8.65 6.129-.608 2.05-1.709 4.019-2.896 5.822-4.695 7.133-13.162 7.235-18.184.289-2.269-3.137-3.612-6.732-4.536-10.422-1.185-4.73-3.559-7.616-8.63-8.929-6.972-1.804-10.599-7.051-10.849-13.85-.192-5.218-4.474-10.373-9.671-11.643-7.465-1.825-11.095-6.331-11.303-14.059q-.014-.581-.017-1.179h10.014a3.4 3.4 0 0 0-.313.974c-.281 1.788-.05 4.358 2.328 4.733 4.772.753 8.405 3.404 11.977 6.267 4.331 3.47 6.538 7.986 6.723 13.571.15 4.53.83 5.513 5.254 6.562 7.236 1.716 11.431 6.238 13.34 13.252.797 2.93 1.624 5.881 3.206 8.523 1.072 1.79 2.193 2.049 3.217-.063.474-.978.952-1.956 1.37-2.957 3.939-9.442 11.457-13.811 21.729-12.649 2.937.332 5.735 1.183 8.573 1.949 2.947.796 5.974 1.825 9.532.24-5.19-2.461-9.361-5.498-12.384-9.919-.172-.252-.516-.615-.721-.58-4.862.825-9.924-1.975-14.743 1.822-6.469 5.1-13.855 5.259-21.212 1.59-4.612-2.299-7.658-6.027-9.171-10.951-.816-2.655-2.191-4.941-4.011-7.022-3.564-4.075-6.678-8.383-6.268-14.214.051-.716-.16-1.011-.466-1.128h27.274c3.242 1.933 6.808 3.119 10.81 3.329 10.811.567 18.608 5.779 22.941 15.666"/><path d="M446.189 249.313h9.026q-.167.032-.326.065c-2.965.655-5.857.501-8.7-.065m-64.374 147.046c-2.878-.109-4.719-2.41-4.719-5.897 0-3.126 1.754-5.144 4.544-5.225 3.076-.089 5.185 2.439 5.164 6.19-.016 2.724-2.35 5.032-4.989 4.932m-.12-26.581c-2.689-.011-4.71-2.01-4.742-4.688-.033-2.869 2.337-5.292 5.073-5.185 2.577.101 4.612 2.294 4.568 4.921-.047 2.819-2.169 4.964-4.899 4.952m-1.229 4.394c2.762.04 4.9 2.289 4.833 5.086-.063 2.623-2.263 4.781-4.839 4.744-2.655-.037-4.86-2.405-4.822-5.177.038-2.718 2.087-4.693 4.828-4.653m78.498 41.434c-2.943-.005-4.741-2.011-4.781-5.332-.039-3.322 1.713-5.397 4.628-5.481 2.945-.085 4.87 1.931 4.938 5.171.073 3.524-1.727 5.648-4.785 5.642m17.433-16.196c-2.772.154-5.157-2.134-5.294-5.081-.13-2.805 1.957-5.046 4.763-5.113 2.93-.07 4.984 2.02 5.094 5.186a4.846 4.846 0 0 1-4.563 5.008m-20.345 64.307c3.176-.048 5.648 2.145 5.663 5.024.016 3.099-2.5 5.954-5.27 5.979-2.847.026-5.269-2.727-5.231-5.944.035-2.891 2.068-5.018 4.838-5.059"/><path d="M448.763 455.928c2.851.028 5.155 2.384 5.078 5.193-.077 2.788-2.291 4.841-5.087 4.719-2.956-.13-5.264-2.431-5.172-5.157.089-2.666 2.395-4.782 5.181-4.755M482.1 317.06c3.68-.074 6.569 2.284 6.553 5.348-.016 2.791-2.074 4.722-5.075 4.762-3.378.044-6.246-2.398-6.245-5.317.001-2.592 2.138-4.74 4.767-4.793m-10.774 2.267c2.687-.06 5.27 2.454 5.304 5.162.034 2.696-2.455 5.345-5.074 5.401-2.827.059-5.135-2.046-5.213-4.757-.091-3.126 2.155-5.743 4.983-5.806m-5.8-15.484c2.803-.015 5.69 2.541 5.78 5.118.091 2.576-2.148 4.856-4.934 5.025-2.987.181-5.465-2.066-5.587-5.065-.113-2.782 2.017-5.064 4.741-5.078M344.69 319.335c-2.981-.053-5.297-2.425-5.305-5.435-.008-2.893 1.989-5.074 4.719-5.156 2.816-.085 5.545 2.7 5.546 5.66.001 2.746-2.245 4.979-4.96 4.931m15.584 4.529c.025 2.699-1.972 4.75-4.668 4.794-2.769.045-5.234-2.299-5.328-5.07-.091-2.694 1.865-4.858 4.496-4.976 2.848-.128 5.473 2.379 5.5 5.252"/></g><g fill="#fff" clip-path="url(#e)" transform="matrix(1.33333 0 0 -1.33333 0 1360)"><path d="M431.56 160.068h-3.174v-4.761h3.174c1.538 0 2.514.952 2.514 2.368s-.976 2.393-2.514 2.393m.17-7.813h-3.344v-6.544h-3.394v17.385h6.738c3.591 0 5.739-2.467 5.739-5.421s-2.148-5.42-5.739-5.42m16.419 7.813h-3.198v-4.591h3.198c1.49 0 2.466.952 2.466 2.296 0 1.342-.976 2.295-2.466 2.295m2.637-14.357-3.394 6.934h-2.441v-6.934h-3.395v17.385h6.813c3.541 0 5.64-2.418 5.64-5.323 0-2.442-1.49-3.956-3.174-4.567l3.882-7.495zm7.968-.001v17.385h11.451v-3.028h-8.057v-4.078h6.861v-3.027h-6.861v-4.224h8.057v-3.028zm20.789-.145c-2.636 0-4.638.561-6.348 2.294l2.198 2.198c1.099-1.099 2.587-1.465 4.2-1.465 2.002 0 3.075.757 3.075 2.149 0 .61-.17 1.123-.536 1.465-.342.317-.733.488-1.539.61l-2.099.293c-1.49.219-2.589.684-3.37 1.441-.83.83-1.245 1.954-1.245 3.418 0 3.101 2.295 5.274 6.055 5.274 2.394 0 4.127-.586 5.616-2.026l-2.149-2.125c-1.098 1.05-2.417 1.196-3.565 1.196-1.806 0-2.686-1-2.686-2.196 0-.44.148-.905.514-1.245.341-.318.903-.587 1.611-.684l2.051-.294c1.587-.22 2.589-.659 3.321-1.342.928-.88 1.343-2.149 1.343-3.688 0-3.368-2.808-5.273-6.447-5.273m10.875.145v17.385h11.452v-3.028h-8.058v-4.078h6.861v-3.027h-6.861v-4.224h8.058v-3.028zm26.281 0-6.885 10.67v-10.67h-3.394v17.385h3.028l6.886-10.646v10.646h3.393V145.71zm14.954 14.358v-14.357h-3.394v14.357h-4.541v3.028h12.477v-3.028zm8.529-14.358v17.385h11.451v-3.028h-8.057v-4.078h6.861v-3.027h-6.861v-4.224h8.057v-3.028zm24.5 13.283c-.587.708-1.368 1.075-2.54 1.075h-2.563v-11.33h2.563c1.172 0 1.953.367 2.54 1.075.635.781.733 2.026.733 4.662 0 2.638-.098 3.737-.733 4.518m2.368-11.623c-1.147-1.147-2.783-1.66-4.59-1.66h-6.275v17.386h6.275c1.807 0 3.443-.514 4.59-1.662 1.954-1.953 1.758-4.346 1.758-6.959 0-2.611.196-5.151-1.758-7.105m20.28 5.642h-3.54v-4.273h3.54c1.538 0 2.271.976 2.271 2.148s-.733 2.125-2.271 2.125m-.22 7.056h-3.32v-4.004h3.32c1.441 0 2.246.806 2.246 2.002 0 1.197-.805 2.002-2.246 2.002m.562-14.357h-7.277v17.385h6.984c3.394 0 5.372-1.904 5.372-4.884 0-1.929-1.27-3.174-2.15-3.589 1.051-.488 2.393-1.587 2.393-3.906 0-3.247-2.221-5.006-5.322-5.006m16.662 7.129v-7.129h-3.369v7.129l-5.226 10.256h3.688l3.247-7.008 3.198 7.008h3.688zm40.094-28.166c0-2.697.628-4.733 2.765-4.733.882 0 1.646.492 2.019 1.153v1.833l-1.459.136v1.289h5.208v-1.289l-1.069-.119v-4.258h-1.34c-.118.322-.254.644-.61.644-.561 0-1.358-.797-3.156-.797-3.274 0-5.378 1.816-5.378 6.056 0 4.106 2.528 6.192 5.751 6.192 1.561 0 2.206-.644 2.731-.644.255 0 .357.187.476.492h1.17l.119-3.936h-1.273c-.509 2.002-1.357 2.766-2.985 2.766-2.053 0-2.969-1.748-2.969-4.785m14.536-.814v.305c0 1.544-.221 2.223-1.103 2.223-1.001 0-1.306-1.121-1.34-2.528zm-1.001 3.545c2.172 0 3.665-1.17 3.665-3.749 0-.221-.017-.679-.035-.916h-5.089c.017-1.578.373-2.799 1.9-2.799 1.052 0 1.544.611 1.951 1.527l1.205-.424c-.509-1.595-1.765-2.511-3.58-2.511-2.749 0-4.225 1.73-4.225 4.292 0 2.918 1.799 4.58 4.208 4.58m8.023-.117.119-1.612h.102c.424.865 1.154 1.73 2.866 1.73 1.68 0 2.63-.78 2.63-2.765v-4.614l1.068-.119v-1.188h-4.494v1.188l.796.119v4.275c0 .916-.118 1.527-1.052 1.527-.916 0-1.628-.543-1.628-1.917v-3.885l.865-.119v-1.188h-4.546v1.188l1.051.119v5.853l-1.051.118v1.171zm12.789-3.428v.305c0 1.544-.221 2.223-1.103 2.223-1 0-1.306-1.121-1.34-2.528zm-1.001 3.545c2.172 0 3.665-1.17 3.665-3.749 0-.221-.017-.679-.035-.916h-5.089c.017-1.578.373-2.799 1.9-2.799 1.052 0 1.544.611 1.951 1.527l1.205-.424c-.509-1.595-1.765-2.511-3.58-2.511-2.748 0-4.225 1.73-4.225 4.292 0 2.918 1.799 4.58 4.208 4.58m11.755-1.933h4.14v3.698l-1.103.119v1.306h5.022v-1.289l-1.12-.119v-9.042l1.12-.136v-1.289h-5.022v1.289l1.103.136v3.851h-4.14v-3.851l1.12-.136v-1.289h-5.039v1.289l1.12.136v9.025l-1.12.119v1.306h5.039v-1.289l-1.12-.119zm13.891-4.258v1.051h-.662c-1.069 0-1.374-.424-1.374-1.305 0-.798.271-1.154.933-1.154.577 0 1.103.373 1.103 1.408m0 1.934v1.222c0 1.305-.306 2.069-1.51 2.069-.51 0-.967-.119-.967-.56 0-.068.017-.152.033-.237h.645a3 3 0 0 0 .102-.662c0-.678-.424-1.17-1.306-1.17-.916 0-1.323.593-1.323 1.34 0 1.34 1.221 2.256 3.41 2.256 2.256 0 3.545-.763 3.545-3.206v-3.495c0-.611.034-.899.391-.899.135 0 .304.033.559.136l.237-.866c-.322-.22-1.069-.542-1.917-.542-1.085 0-1.543.457-1.747 1.272-.305-.56-.95-1.272-2.392-1.272-1.356 0-2.493.593-2.493 2.222 0 1.849 1.288 2.392 3.528 2.392zm9.262-1.934v1.051h-.662c-1.069 0-1.374-.424-1.374-1.305 0-.798.271-1.154.933-1.154.577 0 1.103.373 1.103 1.408m0 1.934v1.222c0 1.305-.306 2.069-1.511 2.069-.508 0-.966-.119-.966-.56 0-.068.017-.152.033-.237h.645a3 3 0 0 0 .102-.662c0-.678-.424-1.17-1.306-1.17-.916 0-1.323.593-1.323 1.34 0 1.34 1.221 2.256 3.41 2.256 2.256 0 3.545-.763 3.545-3.206v-3.495c0-.611.034-.899.391-.899.135 0 .304.033.559.136l.238-.866c-.323-.22-1.069-.542-1.918-.542-1.085 0-1.543.457-1.747 1.272-.305-.56-.95-1.272-2.392-1.272-1.356 0-2.493.593-2.493 2.222 0 1.849 1.288 2.392 3.528 2.392zm4.561-1.68h1.052c.271-1.052 1.154-1.764 2.477-1.764.95 0 1.408.305 1.408.933 0 .763-.764.899-1.713 1.069-1.425.254-3.173.542-3.173 2.798 0 1.765 1.357 2.902 3.156 2.902.763 0 1.238-.221 1.594-.408a.7.7 0 0 1 .357-.101c.22 0 .254.118.339.407h.899v-2.63h-1.034c-.442 1.086-1.036 1.612-2.122 1.612-.661 0-1.289-.254-1.289-.882 0-.696.747-.832 1.663-1.018 1.425-.271 3.257-.61 3.257-2.884 0-1.883-1.238-2.969-3.122-2.969-1.051 0-1.646.305-2.086.526a.8.8 0 0 1-.323.085c-.186 0-.254-.119-.356-.509h-.984zm19.66 9.127.153-3.071h-.475c-.441 2.07-1.035 2.461-2.834 2.461h-2.035v-4.972h1.051c1.476 0 1.816.544 2.087 2.07h.39v-5.021h-.424c-.271 1.815-.56 2.256-2.256 2.256h-.848v-4.97l2.358-.136v-.492h-5.191v.492l1.441.118v10.603l-1.441.136v.526zm4.697-4.054c-1.9 0-2.308-1.799-2.308-3.546 0-1.764.425-3.681 2.358-3.681 1.867 0 2.308 1.781 2.308 3.562 0 1.714-.407 3.665-2.358 3.665m.085.763c2.426 0 3.664-1.782 3.664-4.359 0-2.647-1.459-4.412-3.767-4.412-2.374 0-3.681 1.765-3.681 4.343 0 2.646 1.527 4.428 3.784 4.428m7.158-5.988c0-1.204.356-1.815 1.73-1.815 1.323 0 2.46.831 2.46 2.409v4.512l-1.255.12v.576l2.476.068v-7.77l1.12-.119v-.577h-2.138l-.118 1.409c-.543-.815-1.527-1.595-2.918-1.595-1.815 0-2.579.95-2.579 2.799v5.089l-1.187.12v.576l2.409.068zm10.041 5.904.068-1.595c.509.814 1.493 1.68 2.985 1.68 1.85 0 2.545-.951 2.545-2.935v-4.971l1.154-.118v-.561h-3.613v.561l1.238.118v4.988c0 1.357-.34 2.002-1.748 2.002-1.322 0-2.493-.9-2.493-2.273v-4.717l1.255-.118v-.561h-3.596v.561l1.102.118v7.04l-1.102.119v.543zm13.96-5.514v2.629c0 1.578-1.103 2.172-2.188 2.172-1.815 0-2.426-1.425-2.426-3.562 0-1.629.356-3.479 2.223-3.479 1.238 0 2.391.933 2.391 2.24m0 4.529v4.445l-1.407.136v.542l2.646.085v-12.045l1.238-.118v-.56h-2.409l-.085 1.323c-.441-.746-1.255-1.509-2.748-1.509-2.205 0-3.24 1.713-3.24 4.223 0 2.902 1.442 4.547 3.579 4.547.934 0 1.765-.288 2.426-1.069m8.464-5.055v1.307h-1.137c-1.645 0-2.256-.696-2.256-1.663 0-1.001.441-1.493 1.441-1.493.934 0 1.952.594 1.952 1.849m0 1.985v1.103c0 1.544-.374 2.375-1.764 2.375-.492 0-1.595-.085-1.595-.763 0-.068.017-.136.034-.221h.525c.052-.203.103-.424.103-.594 0-.543-.391-.797-.832-.797-.509 0-.899.305-.899.967 0 1.187 1.154 2.07 2.85 2.07 2.019 0 2.817-.899 2.817-3.207v-3.936c0-.78.135-.984.576-.984.204 0 .373.035.56.103l.119-.544a2.2 2.2 0 0 0-.984-.203c-.815 0-1.34.305-1.442 1.204-.611-.865-1.595-1.204-2.494-1.204-1.307 0-2.358.577-2.358 2.137 0 1.85 1.577 2.494 3.63 2.494zm4.02 3.24h-1.272v.713h1.272v2.222l1.052.339h.187v-2.561h1.865v-.713h-1.865v-5.7c0-.984.271-1.357.949-1.357.628 0 .951.237 1.239 1.204l.577-.169c-.323-1.341-1.001-1.849-2.036-1.849-1.323 0-1.968.661-1.968 1.9zm6.717 4.597c.475 0 .865-.203.865-.883 0-.559-.322-.848-.848-.848-.611 0-.865.34-.865.832 0 .526.271.899.848.899m.798-3.8v-7.804l1.289-.118v-.56h-3.8v.56l1.272.118v7.04l-1.29.119v.56zm6.225-.661c-1.9 0-2.308-1.799-2.308-3.546 0-1.764.425-3.681 2.358-3.681 1.867 0 2.308 1.781 2.308 3.562 0 1.714-.407 3.665-2.358 3.665m.085.763c2.426 0 3.664-1.782 3.664-4.359 0-2.647-1.459-4.412-3.767-4.412-2.374 0-3.681 1.765-3.681 4.343 0 2.646 1.527 4.428 3.784 4.428m7.36-.084.068-1.595c.509.814 1.493 1.68 2.986 1.68 1.849 0 2.544-.951 2.544-2.935v-4.971l1.154-.118v-.561h-3.613v.561l1.238.118v4.988c0 1.357-.34 2.002-1.748 2.002-1.322 0-2.493-.9-2.493-2.273v-4.717l1.255-.118v-.561h-3.596v.561l1.102.118v7.04l-1.102.119v.543zm-122.789 57.93-14.02-24.283-28.382.03-5.158-8.92 28.39-.03-5.913-10.242h10.304l25.083 43.445zm20.805 0-14.015-24.274-7.568.021-5.158-8.92 7.576-.021-5.918-10.251h10.304l25.083 43.445zm15.225 0-25.083-43.445h10.304l25.083 43.445zm29.887 0-18.138-31.416v28.958l-8.688-14.911v-6.896l-4.033.012-5.158-8.92 9.192-.027.001-10.245h12.045l25.083 43.445zm35.874-9.238h28.239l5.402 9.237h-37.618a5.05 5.05 0 0 1-4.364-2.505l-10.186-17.441c-1.502-2.572.353-5.803 3.332-5.803h13.522l-4.563-7.571a2.42 2.42 0 0 0-2.069-1.169h-15.558v31.934l-8.688-14.911.002-6.712v-.087l-4.006.012-5.158-8.919 9.166-.028v-.019l.003-10.226h28.231c1.797 0 3.458.954 4.365 2.506l10.763 18.434c1.492 2.555-.351 5.765-3.31 5.765h-13.065l3.818 6.506a2.02 2.02 0 0 0 1.742.997"/></g></svg>